<svg width="100" height="100" viewBox="0 0 100 100" fill="none" xmlns="http://www.w3.org/2000/svg">
<g clip-path="url(#clip0_462_817)">
<path d="M50 100C77.6142 100 100 77.6142 100 50C100 22.3858 77.6142 0 50 0C22.3858 0 0 22.3858 0 50C0 77.6142 22.3858 100 50 100Z" fill="url(#paint0_linear_462_817)"/>
<path d="M67.3273 34.0821C64.0855 32.5942 60.6643 31.5332 57.1495 30.9258C57.1175 30.9197 57.0844 30.9239 57.055 30.9378C57.0255 30.9516 57.0012 30.9744 56.9855 31.003C56.5188 31.8489 56.095 32.7179 55.7159 33.6065C51.9274 33.0311 48.0738 33.0311 44.2853 33.6065C43.9044 32.7156 43.4747 31.8465 42.9981 31.003C42.9818 30.975 42.9574 30.9527 42.9281 30.939C42.8988 30.9252 42.866 30.9206 42.8341 30.9258C39.3203 31.5323 35.9003 32.5933 32.6603 34.0821C32.6324 34.0938 32.6088 34.1139 32.5929 34.1397C26.1114 43.8243 24.336 53.2706 25.2071 62.5977C25.2096 62.6206 25.2167 62.6428 25.2279 62.6629C25.2392 62.6831 25.2544 62.7007 25.2726 62.7149C29.0468 65.5107 33.2687 67.6449 37.7579 69.0264C37.7896 69.0359 37.8234 69.0354 37.8548 69.0251C37.8862 69.0148 37.9138 68.9952 37.9337 68.9688C38.8976 67.6565 39.7517 66.2671 40.4874 64.8145C40.4974 64.7946 40.5032 64.7727 40.5042 64.7504C40.5052 64.7281 40.5014 64.7059 40.4932 64.6851C40.485 64.6644 40.4725 64.6456 40.4565 64.63C40.4405 64.6145 40.4215 64.6024 40.4005 64.5948C39.0534 64.0802 37.7492 63.4598 36.5001 62.7393C36.4774 62.726 36.4584 62.7073 36.4447 62.6848C36.4309 62.6624 36.423 62.6369 36.4214 62.6107C36.4199 62.5844 36.4248 62.5582 36.4358 62.5343C36.4468 62.5104 36.4635 62.4896 36.4845 62.4737C36.7462 62.2784 37.0089 62.0733 37.2589 61.8663C37.2811 61.848 37.3079 61.8364 37.3364 61.8326C37.3649 61.8288 37.3938 61.833 37.42 61.8448C45.6026 65.5811 54.462 65.5811 62.548 61.8448C62.5743 61.8321 62.6038 61.8273 62.6328 61.8307C62.6619 61.8342 62.6893 61.8458 62.712 61.8643C62.962 62.0704 63.2247 62.2774 63.4933 62.4737C63.5143 62.4894 63.5312 62.5101 63.5423 62.5339C63.5535 62.5577 63.5586 62.5839 63.5573 62.6101C63.5559 62.6364 63.5481 62.6619 63.5346 62.6844C63.521 62.707 63.5021 62.7258 63.4796 62.7393C62.2321 63.4668 60.9254 64.0875 59.5733 64.5948C59.5523 64.6027 59.5331 64.615 59.5172 64.6309C59.5012 64.6468 59.4888 64.6659 59.4808 64.687C59.4727 64.708 59.4692 64.7305 59.4706 64.753C59.4719 64.7755 59.478 64.7975 59.4884 64.8174C60.2363 66.2621 61.0892 67.6499 62.0401 68.9698C62.0594 68.997 62.0868 69.0173 62.1184 69.028C62.1499 69.0387 62.1841 69.0392 62.2159 69.0293C66.7113 67.6519 70.9386 65.5174 74.7159 62.7178C74.7344 62.7044 74.7498 62.6872 74.7611 62.6673C74.7724 62.6474 74.7793 62.6253 74.7814 62.6026C75.8243 51.8174 73.0353 42.4483 67.3888 34.1436C67.3762 34.1165 67.3544 34.0947 67.3273 34.0821ZM41.7081 56.919C39.2442 56.919 37.2159 54.6573 37.2159 51.8799C37.2159 49.1026 39.2062 46.8409 41.7081 46.8409C44.2306 46.8409 46.2413 49.1221 46.2003 51.8799C46.2023 54.6573 44.211 56.919 41.7081 56.919ZM58.3224 56.919C55.8585 56.919 53.8302 54.6573 53.8302 51.8799C53.8302 49.1026 55.8204 46.8409 58.3224 46.8409C60.8448 46.8409 62.8556 49.1221 62.8146 51.8799C62.8155 54.6573 60.8448 56.919 58.3224 56.919Z" fill="white"/>
</g>
<defs>
<linearGradient id="paint0_linear_462_817" x1="7.78735e-07" y1="113" x2="104.5" y2="-6.5" gradientUnits="userSpaceOnUse">
<stop stop-color="#4BD8D8"/>
<stop offset="1" stop-color="#146EB4"/>
</linearGradient>
<clipPath id="clip0_462_817">
<rect width="100" height="100" fill="white"/>
</clipPath>
</defs>
</svg>
