<svg width="100" height="100" viewBox="0 0 100 100" fill="none" xmlns="http://www.w3.org/2000/svg">
<rect x="18" y="24" width="65" height="56" fill="white"/>
<g clip-path="url(#clip0_472_46)">
<path d="M50 0C22.3884 0 0 22.3884 0 50C0 77.6116 22.3884 100 50 100C77.6116 100 100 77.6116 100 50C100 22.3884 77.6116 0 50 0ZM74.029 37.6897C74.0625 38.2143 74.0625 38.7612 74.0625 39.2969C74.0625 55.6808 61.5848 74.5536 38.7835 74.5536C31.7522 74.5536 25.2344 72.5112 19.7433 68.9955C20.7478 69.1071 21.7076 69.1518 22.7344 69.1518C28.5379 69.1518 33.8728 67.1875 38.125 63.8616C32.6786 63.75 28.1027 60.1786 26.5402 55.2679C28.4487 55.5469 30.1674 55.5469 32.1317 55.0446C29.3273 54.4749 26.8066 52.9518 24.9979 50.7342C23.1893 48.5166 22.2041 45.7411 22.2098 42.8795V42.7232C23.8504 43.6496 25.7813 44.2187 27.8013 44.2969C26.1032 43.1651 24.7105 41.6318 23.7468 39.8329C22.7831 38.034 22.2782 36.0251 22.2768 33.9844C22.2768 31.6741 22.8795 29.5647 23.9621 27.7344C27.0748 31.5663 30.959 34.7002 35.3623 36.9327C39.7656 39.1651 44.5894 40.4459 49.5201 40.692C47.7679 32.2656 54.0625 25.4464 61.6295 25.4464C65.2009 25.4464 68.4152 26.942 70.6808 29.3527C73.4821 28.8281 76.1607 27.779 78.5491 26.3728C77.6228 29.2411 75.6808 31.6629 73.1027 33.192C75.6027 32.9241 78.0134 32.2321 80.2455 31.2612C78.5603 33.7388 76.4509 35.9375 74.029 37.6897Z" fill="url(#paint0_linear_472_46)"/>
</g>
<defs>
<linearGradient id="paint0_linear_472_46" x1="15.5" y1="116.5" x2="112.5" y2="-7.5" gradientUnits="userSpaceOnUse">
<stop stop-color="#4BD8D8"/>
<stop offset="1" stop-color="#146EB4"/>
</linearGradient>
<clipPath id="clip0_472_46">
<rect width="100" height="100" fill="white"/>
</clipPath>
</defs>
</svg>
