<svg width="465" height="736" viewBox="0 0 465 736" fill="none" xmlns="http://www.w3.org/2000/svg">
<path d="M376.821 321.377C228.16 182.252 -396.272 543.508 -405.351 551.712C-774.953 827.886 46.7237 853.487 66.0543 857.575C-174.609 584.866 328.825 465.849 376.821 321.377Z" fill="#146EB4"/>
<path d="M267.737 149.963C293.209 28.2984 -29.2342 114.261 -193.64 172.45C-344.585 313.917 -16.7472 649.924 29.9154 498.984C103.009 262.545 235.897 302.045 267.737 149.963Z" fill="#4BD8D8"/>
<path d="M219.677 180.401C252.839 43.7818 -119.401 159.48 -309.667 234.406C-499.193 308.868 -12.6831 774.953 -94.3527 584.675C-176.022 394.398 178.224 351.174 219.677 180.401Z" fill="#6A1BEB"/>
<path d="M196.539 176.248C113.743 98.9431 -233.751 299.378 -238.803 303.931C-444.466 457.192 12.9408 471.651 23.7028 473.927C-110.347 322.411 169.863 256.465 196.539 176.248Z" fill="#6A1BEB"/>
<path d="M343.508 273.102C366.562 197.095 77.9722 297.994 -69.2047 357.945C-130.664 382.12 -42.1297 453.931 37.5372 579.604C117.204 705.277 170.361 607.293 194.371 467.472C218.381 327.65 314.69 368.111 343.508 273.102Z" fill="#6A1BEB"/>
<path d="M156.578 278.615C153.436 249.54 -127.199 356.69 -267.124 413.898C-184.387 505.325 -19.403 664.281 -21.3622 568.701C-23.8112 449.225 43.4451 383.486 76.2519 362.303C109.059 341.12 160.506 314.958 156.578 278.615Z" fill="#555555"/>
<path d="M464.709 209.463C288.662 107.171 -238.987 599.112 -245.998 609.141C-544.349 961.085 262.184 801.99 281.939 801.645C-13.6925 589.77 450.292 361.014 464.709 209.463Z" fill="#146EB4"/>
<path d="M238.75 62.4995C264.222 -59.1654 -58.2215 26.7971 -222.627 84.9865C-373.572 226.453 -45.7345 562.461 0.928083 411.52C74.0222 175.081 206.909 214.581 238.75 62.4995Z" fill="#4BD8D8"/>
<path d="M390.373 283.049C434.321 225.681 64.5613 359.576 -138.971 337.054C-328.496 411.516 158.013 877.601 76.3436 687.324C-5.32606 497.046 283.504 422.551 390.373 283.049Z" fill="#6A1BEB"/>
<path d="M172.313 10.83C72.4575 -42.6493 -211.993 240.218 -215.707 245.915C-375.174 446.805 70.6364 343.445 81.6221 342.885C-86.8091 230.825 167.108 95.2051 172.313 10.83Z" fill="#6A1BEB"/>
<path d="M205.843 405.419C263.561 350.854 -37.0753 295.33 -194.608 274.389C-259.966 264.897 -218.706 371.164 -211.862 519.804C-205.018 668.443 -110.261 609.727 -20.0621 500.225C70.1364 390.722 133.696 473.624 205.843 405.419Z" fill="#6A1BEB"/>
<path d="M201.531 308.037C198.843 278.917 -83.4302 381.674 -224.231 436.693C-142.93 529.399 19.5531 690.911 19.0856 595.311C18.5012 475.811 86.775 411.13 119.908 390.461C153.042 369.793 204.891 344.437 201.531 308.037Z" fill="#555555"/>
</svg>
