<svg width="534" height="782" viewBox="0 0 534 782" fill="none" xmlns="http://www.w3.org/2000/svg">
<path d="M45.2957 713.639C116.572 847.535 643.809 743.326 652.186 739.73C979.281 634.098 504.16 411.139 491.518 403.599C415.677 774.733 113.941 623.359 45.2957 713.639Z" fill="#3B37FF"/>
<path d="M45.5032 510.167C116.569 633.743 608.642 520.914 616.4 517.302C920.421 408.856 571.037 158.521 558.93 151.809C438.858 428.591 267.018 460.014 45.5032 510.167Z" fill="#37E7FF"/>
<path d="M130.326 543.815C319.373 609.259 528.64 447.806 549.591 364.386C537.658 157.615 543.347 -165.83 463.477 158.152C374.001 521.101 -153.656 445.507 130.326 543.815Z" fill="#6A1BEB"/>
<path d="M131.54 498.229C109.947 557.987 411.758 516.363 555.679 445.16C747.642 282.256 658.562 46.2637 494.714 247.109C445.089 307.939 421.723 416.921 237.475 444.43C197.654 450.376 137.354 482.137 131.54 498.229Z" fill="#6A1BEB"/>
<path d="M0.436065 615.249C98.3909 676.711 900.361 475.425 927.256 655.095C1426.78 493.776 701.196 153.282 681.89 141.768C729.154 24.4174 54.6825 181.177 0.436065 615.249Z" fill="#3B37FF"/>
<path d="M88.5091 594.167C159.575 717.743 651.647 604.914 659.406 601.301C963.427 492.856 614.043 242.521 601.936 235.808C481.864 512.591 310.024 544.014 88.5091 594.167Z" fill="#37E7FF"/>
<path d="M230.586 310.084C419.633 375.528 628.901 214.075 649.851 130.655C637.918 -76.1157 643.607 -399.561 563.737 -75.579C474.261 287.37 -53.3954 211.776 230.586 310.084Z" fill="#6A1BEB"/>
<path d="M169.467 591.594C147.874 651.351 449.685 609.728 593.606 538.525C785.569 375.621 696.489 139.628 532.641 340.474C483.016 401.304 459.65 510.286 275.402 537.795C235.581 543.741 175.282 575.501 169.467 591.594Z" fill="#6A1BEB"/>
</svg>
