<svg width="646" height="523" viewBox="0 0 646 523" fill="none" xmlns="http://www.w3.org/2000/svg">
<path d="M487.553 144.221C500.714 20.6169 188.499 138.436 30.7469 212.797C-105.273 368.667 254.564 670.157 285.877 515.302C334.927 272.732 287.096 259.868 487.553 144.221Z" fill="#146EB4"/>
<path d="M484.423 19.2432C475.112 111.828 366.746 458.143 294.045 431.046C274.083 686.756 586.003 351.889 594.799 345.284C392.5 346.493 527.263 92.1201 484.423 19.2432Z" fill="#6A1BEB"/>
<path d="M645.564 252.713C658.724 129.109 346.51 246.928 188.758 321.288C52.738 477.159 412.575 778.649 443.888 623.794C492.938 381.224 445.106 368.359 645.564 252.713Z" fill="#146EB4"/>
<path d="M385.603 0.64746C376.292 93.2325 267.926 439.548 195.225 412.45C175.262 668.161 487.182 333.293 495.979 326.688C293.679 327.897 428.442 73.5244 385.603 0.64746Z" fill="#6A1BEB"/>
</svg>
